<?xml version="1.0" encoding="UTF-8"?><svg xmlns="http://www.w3.org/2000/svg" viewBox="0 0 841 308.52"><defs><style>.d{stroke:#f0f8ff;stroke-miterlimit:10;stroke-width:5px;}.d,.e{fill:#f0f8ff;}</style></defs><g id="a"/><g id="b"><g id="c"><g><g><path class="d" d="M2.5,126.8V43.97C2.5,21.09,20.98,2.5,43.86,2.5s41.47,18.59,41.47,41.47v20.68h-20.79v-20.68c0-11.44-9.24-20.68-20.68-20.68s-20.68,9.24-20.68,20.68V126.8c0,11.44,9.24,20.68,20.68,20.68s20.68-9.24,20.68-20.68v-20.68h20.79v20.68c0,22.88-18.59,41.36-41.47,41.36S2.5,149.68,2.5,126.8Z"/><path class="d" d="M128.45,168.71h-20.68L149.24,3.05h20.68l41.36,165.66h-20.68l-10.34-41.36h-41.47l-10.34,41.36Zm15.62-62.04h31.02l-15.51-62.15-15.51,62.15Z"/><path class="d" d="M287.51,2.94c22.88,0,41.36,18.48,41.36,41.36v20.79c0,22.88-18.48,41.36-41.36,41.36h-20.68v62.15h-20.79V2.94h41.47Zm0,20.68h-20.68v62.15h20.68c11.44,0,20.68-9.24,20.68-20.68v-20.79c0-11.44-9.24-20.68-20.68-20.68Z"/><path class="d" d="M360.88,2.94h20.79V168.6h-20.79V2.94Z"/><path class="d" d="M446.68,2.83h51.81V23.51h-31.02V168.49h-20.79V23.51h-31.02V2.83h31.02Z"/><path class="d" d="M529.18,168.71h-20.68L549.97,3.05h20.68l41.36,165.66h-20.68l-10.34-41.36h-41.47l-10.34,41.36Zm15.62-62.04h31.02l-15.51-62.15-15.51,62.15Z"/><path class="d" d="M667.23,168.6h-20.68V2.94h20.68V147.92h62.15v20.68h-62.15Z"/><path class="d" d="M797.03,168.49c-22.88,0-41.36-18.59-41.36-41.47h20.68c0,11.44,9.24,20.79,20.68,20.79s20.46-9.35,20.79-20.79c.88-35.31-62.15-35.86-62.15-82.72,0-22.88,18.48-41.47,41.36-41.47s41.47,18.59,41.47,41.47h-20.68c0-11.44-9.35-20.79-20.79-20.79s-20.46,9.35-20.68,20.79c-.66,31.13,62.15,30.47,62.15,82.72,0,22.88-18.59,41.47-41.47,41.47Z"/></g><g><path class="e" d="M182.36,206.88c12.48,0,22.62,10.08,22.62,22.56v45.18c0,7.38-3.6,13.92-9.06,18.06,2.04,2.76,5.34,4.56,9.06,4.56v11.28c-8.46,0-15.84-4.62-19.68-11.52-.96,.12-1.92,.24-2.94,.24-12.48,0-22.56-10.14-22.56-22.62v-45.18c0-12.48,10.08-22.56,22.56-22.56Zm0,11.28c-6.24,0-11.28,5.04-11.28,11.28v45.18c0,6.24,5.04,11.34,11.28,11.34s11.28-5.1,11.28-11.34v-45.18c0-6.24-5.04-11.28-11.28-11.28Z"/><path class="e" d="M245.96,285.9c6.24,0,11.28-5.1,11.28-11.34v-67.74h11.28v67.74c0,12.48-10.14,22.62-22.56,22.62s-22.62-10.14-22.62-22.62v-67.74h11.28v67.74c0,6.24,5.1,11.34,11.34,11.34Z"/><path class="e" d="M285.86,206.88h11.34v90.36h-11.34v-90.36Z"/><path class="e" d="M360.44,218.1l-33.84,67.8h33.84v11.28h-45.18v-11.28l33.9-67.8h-33.9v-11.28h45.18v11.28Z"/><path class="e" d="M410.6,274.44v-45.18c0-12.48,10.14-22.62,22.62-22.62s22.56,10.14,22.56,22.62v11.28h-11.28v-11.28c0-6.24-5.04-11.28-11.28-11.28s-11.34,5.04-11.34,11.28v45.18c0,6.24,5.1,11.28,11.34,11.28s11.28-5.04,11.28-11.28v-11.28h-11.28v-11.34h22.56v22.62c0,12.48-10.08,22.56-22.56,22.56s-22.62-10.08-22.62-22.56Z"/><path class="e" d="M479.66,297.3h-11.28l22.62-90.36h11.28l22.56,90.36h-11.28l-5.64-22.56h-22.62l-5.64,22.56Zm8.52-33.84h16.92l-8.46-33.9-8.46,33.9Z"/><path class="e" d="M554.9,297.24h-11.28v-90.36h11.28l16.92,59.28,16.98-59.28h11.28v90.36h-11.28v-50.82l-11.34,39.54h-11.28l-11.28-39.54v50.82Z"/><path class="e" d="M630.14,297h-11.28v-90.36h45.18v11.34h-33.9v22.56h22.62v11.28h-22.62v33.9h33.9v11.28h-33.9Z"/></g></g></g></g></svg>